<svg width="28" height="28" viewBox="0 0 28 28" fill="none" xmlns="http://www.w3.org/2000/svg">
<path d="M3.51172 13.0898V18.3282C3.51172 23.5665 5.61172 25.6665 10.8501 25.6665H17.1384C22.3767 25.6665 24.4767 23.5665 24.4767 18.3282V13.0898" stroke="#676767" stroke-width="1.4" stroke-linecap="round" stroke-linejoin="round"/>
<path d="M13.9993 13.9987C16.1343 13.9987 17.7093 12.2604 17.4993 10.1254L16.7293 2.33203H11.2809L10.4993 10.1254C10.2893 12.2604 11.8643 13.9987 13.9993 13.9987Z" stroke="#676767" stroke-width="1.4" stroke-linecap="round" stroke-linejoin="round"/>
<path d="M21.3619 13.9987C23.7186 13.9987 25.4453 12.0854 25.2119 9.74037L24.8853 6.53203C24.4653 3.4987 23.2986 2.33203 20.2419 2.33203H16.6836L17.5003 10.5104C17.6986 12.4354 19.4369 13.9987 21.3619 13.9987Z" stroke="#676767" stroke-width="1.4" stroke-linecap="round" stroke-linejoin="round"/>
<path d="M6.57815 13.9987C8.50315 13.9987 10.2415 12.4354 10.4282 10.5104L10.6848 7.93203L11.2448 2.33203H7.68649C4.62982 2.33203 3.46315 3.4987 3.04315 6.53203L2.72815 9.74037C2.49482 12.0854 4.22149 13.9987 6.57815 13.9987Z" stroke="#676767" stroke-width="1.4" stroke-linecap="round" stroke-linejoin="round"/>
<path d="M13.9987 19.832C12.0504 19.832 11.082 20.8004 11.082 22.7487V25.6654H16.9154V22.7487C16.9154 20.8004 15.947 19.832 13.9987 19.832Z" stroke="#676767" stroke-width="1.4" stroke-linecap="round" stroke-linejoin="round"/>
</svg>
